<svg xmlns="http://www.w3.org/2000/svg" width="1000" height="560" font-family="Segoe UI, Arial, sans-serif">
<rect width="1000" height="560" fill="white"/>
<text x="90" y="34" font-size="20" font-weight="bold" fill="#1a1a1a">STARLINK-3200: held steady for months, then we caught it starting to deorbit</text>
<text x="90" y="56" font-size="14" fill="#666">Altitude above Earth over 4 months, from free public tracking data</text>
<line x1="90" y1="488.6" x2="960" y2="488.6" stroke="#e6e6e6"/><text x="80" y="492.6" text-anchor="end" font-size="13" fill="#666">485</text><line x1="90" y1="458.1" x2="960" y2="458.1" stroke="#e6e6e6"/><text x="80" y="462.1" text-anchor="end" font-size="13" fill="#666">490</text><line x1="90" y1="427.6" x2="960" y2="427.6" stroke="#e6e6e6"/><text x="80" y="431.6" text-anchor="end" font-size="13" fill="#666">495</text><line x1="90" y1="397.1" x2="960" y2="397.1" stroke="#e6e6e6"/><text x="80" y="401.1" text-anchor="end" font-size="13" fill="#666">500</text><line x1="90" y1="366.6" x2="960" y2="366.6" stroke="#e6e6e6"/><text x="80" y="370.6" text-anchor="end" font-size="13" fill="#666">505</text><line x1="90" y1="336.1" x2="960" y2="336.1" stroke="#e6e6e6"/><text x="80" y="340.1" text-anchor="end" font-size="13" fill="#666">510</text><line x1="90" y1="305.6" x2="960" y2="305.6" stroke="#e6e6e6"/><text x="80" y="309.6" text-anchor="end" font-size="13" fill="#666">515</text><line x1="90" y1="275.1" x2="960" y2="275.1" stroke="#e6e6e6"/><text x="80" y="279.1" text-anchor="end" font-size="13" fill="#666">520</text><line x1="90" y1="244.6" x2="960" y2="244.6" stroke="#e6e6e6"/><text x="80" y="248.6" text-anchor="end" font-size="13" fill="#666">525</text><line x1="90" y1="214.1" x2="960" y2="214.1" stroke="#e6e6e6"/><text x="80" y="218.1" text-anchor="end" font-size="13" fill="#666">530</text><line x1="90" y1="183.6" x2="960" y2="183.6" stroke="#e6e6e6"/><text x="80" y="187.6" text-anchor="end" font-size="13" fill="#666">535</text><line x1="90" y1="153.1" x2="960" y2="153.1" stroke="#e6e6e6"/><text x="80" y="157.1" text-anchor="end" font-size="13" fill="#666">540</text><line x1="90" y1="122.6" x2="960" y2="122.6" stroke="#e6e6e6"/><text x="80" y="126.6" text-anchor="end" font-size="13" fill="#666">545</text><line x1="90" y1="92.1" x2="960" y2="92.1" stroke="#e6e6e6"/><text x="80" y="96.1" text-anchor="end" font-size="13" fill="#666">550</text><text x="90.0" y="514" text-anchor="middle" font-size="13" fill="#666">Mar</text><text x="147.4" y="514" text-anchor="middle" font-size="13" fill="#666">Apr</text><text x="370.3" y="514" text-anchor="middle" font-size="13" fill="#666">May</text><text x="593.7" y="514" text-anchor="middle" font-size="13" fill="#666">Jun</text><text x="810.9" y="514" text-anchor="middle" font-size="13" fill="#666">Jul</text>
<polyline points="90.0,111.0 91.4,111.0 93.4,111.0 98.7,111.1 100.6,111.0 100.6,111.0 105.0,111.0 105.0,111.0 109.8,111.1 111.7,111.1 112.2,111.2 112.7,111.2 115.1,111.1 115.1,111.1 119.0,111.1 122.3,111.1 124.3,111.1 126.2,111.1 132.5,111.2 133.4,111.1 138.7,110.8 140.7,110.7 143.6,110.7 147.4,110.7 147.9,110.7 148.9,110.7 150.8,110.7 154.7,110.7 155.6,110.8 158.0,110.9 162.9,111.5 165.3,111.3 167.2,111.4 167.2,111.4 170.1,111.2 172.5,111.4 174.4,111.4 174.4,111.4 176.4,111.5 179.7,111.3 182.6,111.2 183.6,111.3 189.9,111.5 191.8,111.6 196.2,110.7 199.0,110.8 205.8,111.2 205.8,111.2 208.2,111.2 212.6,111.0 215.5,111.0 218.8,110.8 219.8,110.7 219.8,110.7 222.7,111.0 222.7,111.0 227.5,112.0 229.9,111.1 233.8,110.7 234.8,110.7 234.8,110.7 241.0,111.3 241.0,111.3 247.3,110.7 248.3,110.7 249.2,110.8 249.2,110.8 251.2,110.8 251.2,110.8 254.5,110.9 255.5,110.9 256.0,110.9 258.4,111.0 262.7,111.1 265.6,111.2 270.5,111.3 272.9,111.3 276.7,111.4 276.7,111.4 280.1,111.4 282.0,111.4 284.0,111.3 284.0,111.3 284.9,111.3 284.9,111.3 287.3,111.2 291.2,111.3 292.2,111.2 298.4,111.2 299.4,111.2 299.4,111.2 305.7,111.1 317.7,111.1 320.2,114.2 320.6,110.8 322.6,111.2 322.6,111.2 327.4,110.7 332.2,110.8 332.2,110.8 334.6,110.9 334.6,110.9 337.5,111.0 341.4,111.2 342.3,111.3 344.8,111.3 346.7,111.3 348.6,111.4 348.6,111.4 354.9,111.2 356.8,111.2 356.8,111.2 361.2,111.2 362.1,111.2 364.1,111.2 370.3,111.2 373.2,111.1 376.6,111.0 378.5,111.0 378.5,111.0 380.5,111.0 380.5,111.0 383.8,111.2 385.3,111.2 385.3,111.2 387.7,111.1 391.6,111.0 391.6,111.0 398.8,111.2 398.8,111.2 404.1,111.0 413.3,111.0 414.2,111.0 414.2,111.0 421.5,111.1 421.5,111.1 423.4,111.1 423.4,111.1 427.3,111.1 427.8,111.1 430.6,111.1 434.5,111.0 435.0,111.0 435.0,111.0 437.9,111.0 441.7,111.1 441.7,111.1 442.7,111.1 442.7,111.1 445.1,111.1 447.1,111.1 449.0,111.1 456.2,111.1 464.4,111.1 468.8,111.0 470.7,111.1 477.0,111.0 479.4,111.1 480.8,111.0 485.2,110.9 486.1,110.9 486.1,110.9 488.1,111.0 488.1,111.0 492.4,111.0 492.4,111.0 499.2,111.0 502.5,111.0 502.5,111.0 505.9,111.0 505.9,111.0 509.8,111.1 512.7,111.1 513.6,111.1 513.6,111.1 518.9,111.2 520.9,111.2 527.1,111.0 528.1,111.1 531.0,111.1 532.9,111.0 536.3,111.0 540.2,111.0 542.6,111.0 549.3,111.1 550.3,111.0 554.7,111.0 556.6,112.2 557.5,111.1 557.5,111.1 560.0,111.1 560.0,111.1 561.9,111.2 563.8,111.2 563.8,111.2 570.6,111.1 572.0,111.0 576.4,111.0 579.3,111.2 579.3,111.2 583.6,110.7 585.0,111.0 585.5,111.0 590.4,111.0 590.4,111.0 593.7,111.0 599.5,111.0 600.0,110.9 606.8,111.4 607.2,110.7 607.2,110.7 613.5,110.9 614.0,110.9 614.0,110.9 621.2,110.8 621.2,110.8 628.5,111.0 635.7,111.4 635.7,111.4 638.6,110.9 642.9,111.2 645.8,110.6 645.8,110.6 650.2,110.9 650.2,110.9 653.1,111.0 656.9,110.8 657.4,110.8 660.3,110.8 664.7,111.1 667.6,111.2 671.4,111.3 678.7,111.1 684.9,111.1 685.9,111.1 685.9,111.1 692.6,110.9 693.1,110.9 696.0,110.9 696.0,110.9 699.4,110.9 700.4,110.9 700.4,110.9 703.3,111.0 703.3,111.0 707.6,111.0 707.6,111.0 713.9,111.0 715.3,111.0 717.7,111.0 717.7,111.0 721.6,111.0 725.0,111.0 728.8,111.0 732.2,111.0 743.3,111.0 757.8,111.0 766.5,111.0 769.8,111.0 769.8,111.0 771.8,111.0 772.3,111.0 772.3,111.0 777.1,111.0 780.0,111.0 782.4,111.0 782.4,111.0 786.3,111.0 787.2,111.0 789.6,111.0 791.6,110.9 794.5,111.0 806.0,112.3 810.9,122.8 810.9,122.8 815.7,132.3 819.2,165.4 821.6,172.0 822.2,174.2 822.8,175.6 827.1,185.5 829.5,190.9 830.1,191.5 832.5,194.3 833.7,195.5 835.0,199.2 835.6,200.6 838.6,207.2 839.8,209.8 840.4,210.8 842.2,215.5 843.5,218.2 844.7,220.4 847.7,226.6 850.1,231.6 852.0,234.5 854.4,239.5 855.6,241.5 856.8,244.4 857.4,245.6 859.2,247.5 861.7,251.8 864.1,257.1 864.7,258.1 867.7,263.9 870.2,268.1 873.8,274.5 877.4,281.1 879.9,285.4 881.1,287.2 883.5,290.7 885.9,294.6 887.8,296.2 888.4,297.1 889.6,299.4 890.8,300.6 891.4,301.5 893.2,304.3 894.4,305.1 895.7,306.4 898.1,306.9 899.3,310.0 900.5,311.5 901.7,312.3 902.9,314.0 905.4,317.1 909.0,323.7 910.2,326.3 910.8,327.6 912.7,330.5 915.1,335.3 916.3,337.3 917.5,340.3 918.1,341.5 919.9,344.7 921.2,347.8 923.6,352.7 924.8,355.9 927.2,360.7 927.8,362.5 930.9,369.2 931.5,371.0 933.3,376.3 935.7,381.7 937.5,385.5 939.4,391.4 940.6,393.9 943.0,400.8 945.4,406.9 946.6,411.3 950.3,422.4 952.1,426.4 953.9,430.9 954.5,427.9 957.6,442.2 960.0,449.4" fill="none" stroke="#2f81f7" stroke-width="2"/>
<line x1="819.2" y1="70" x2="819.2" y2="490" stroke="#e5534b" stroke-width="1.5" stroke-dasharray="5,4"/>
<circle cx="819.2" cy="165.4" r="6" fill="none" stroke="#e5534b" stroke-width="2.5"/>
<text x="807.2" y="139.4" text-anchor="end" font-size="14" font-weight="bold" fill="#e5534b">maneuver detected</text>
<text x="807.2" y="157.4" text-anchor="end" font-size="12" fill="#e5534b">Jul 02 &#183; leaves its held orbit</text>
<text x="969.2" y="240.0" text-anchor="middle" font-size="13" fill="#2f81f7" font-weight="bold">flat = actively held</text>
<text x="969.2" y="258.0" text-anchor="middle" font-size="12" fill="#888">(the "heartbeat")</text>
<text x="90" y="542" font-size="12" fill="#999">Blue line = altitude (km). Held flat at 547 km for months (station-keeping), then breaks into a steady, deliberate fall. Data: Space-Track GP history, NORAD 49753.</text>
</svg>